<svg xmlns="http://www.w3.org/2000/svg" width="1200" height="630" viewBox="0 0 1200 630"><defs><linearGradient id="bg" x1="0" y1="0" x2="1" y2="1"><stop stop-color="#251E63"/><stop offset="1" stop-color="#392A8F"/></linearGradient><linearGradient id="a" x1="0" y1="0" x2="1" y2="0"><stop stop-color="#7654F6"/><stop offset="1" stop-color="#4EA2FF"/></linearGradient></defs><rect width="1200" height="630" fill="url(#bg)"/><g opacity=".12" stroke="#fff"><path d="M0 90h1200M0 180h1200M0 270h1200M0 360h1200M0 450h1200M0 540h1200M120 0v630M240 0v630M360 0v630M480 0v630M600 0v630M720 0v630M840 0v630M960 0v630M1080 0v630"/></g><rect x="80" y="76" width="72" height="72" rx="20" fill="#fff"/><path d="M100 132V92h20c11 0 18 6 18 15.5S131 123 120 123h-8.4v9H100Zm11.6-18h7.5c4.8 0 7.5-2.2 7.5-6.2 0-3.8-2.7-6-7.5-6h-7.5v12.2Z" fill="#6548E8"/><text x="174" y="128" fill="#fff" font-family="Arial,sans-serif" font-size="38" font-weight="700" letter-spacing="2">PLATFORMANCE</text><text x="80" y="278" fill="#fff" font-family="Arial,sans-serif" font-size="68" font-weight="700">Системное ведение</text><text x="80" y="358" fill="url(#a)" font-family="Arial,sans-serif" font-size="68" font-weight="700">маркетплейсов под ключ</text><text x="80" y="425" fill="#DDD7F2" font-family="Arial,sans-serif" font-size="28">Карточки · Поставки · Реклама · Финансы · Развитие</text><rect x="80" y="494" width="318" height="64" rx="32" fill="#fff"/><text x="120" y="536" fill="#251E63" font-family="Arial,sans-serif" font-size="24" font-weight="700">Система вместо хаоса</text></svg>
